<svg width="304" height="78" viewBox="0 0 304 78" fill="none" xmlns="http://www.w3.org/2000/svg">
<path d="M93.0312 16.3438H107.594C111.01 16.3438 113.583 16.6146 115.312 17.1562C117.062 17.6979 118.521 18.8854 119.688 20.7188C120.875 22.5521 121.469 24.8333 121.469 27.5625C121.469 32.3333 119.438 35.3958 115.375 36.75C120.208 38.4583 122.625 41.9479 122.625 47.2188C122.625 49.9896 121.969 52.3333 120.656 54.25C119.344 56.1458 117.719 57.4167 115.781 58.0625C113.865 58.6875 111.135 59 107.594 59H93.0312V16.3438ZM102.031 33.5625H105.062C108.083 33.5625 109.979 33.0208 110.75 31.9375C111.542 30.8542 111.938 29.6146 111.938 28.2188C111.938 26.9271 111.542 25.7812 110.75 24.7812C109.979 23.7604 108.312 23.25 105.75 23.25H102.031V33.5625ZM102.031 51.6562H106.625C110.938 51.6562 113.094 49.8021 113.094 46.0938C113.094 44.0312 112.552 42.5833 111.469 41.75C110.406 40.8958 108.792 40.4688 106.625 40.4688H102.031V51.6562ZM152.562 43.2188C152.562 54.1771 148.292 59.6562 139.75 59.6562C131.188 59.6562 126.906 54.1771 126.906 43.2188C126.906 32.2812 131.188 26.8125 139.75 26.8125C148.292 26.8125 152.562 32.2812 152.562 43.2188ZM143.469 43.2188C143.469 39.1979 143.188 36.4792 142.625 35.0625C142.083 33.6458 141.125 32.9375 139.75 32.9375C138.417 32.9375 137.458 33.6146 136.875 34.9688C136.292 36.3021 136 39.0521 136 43.2188C136 47.0729 136.25 49.75 136.75 51.25C137.25 52.75 138.25 53.5 139.75 53.5C141.188 53.5 142.167 52.7604 142.688 51.2812C143.208 49.7812 143.469 47.0938 143.469 43.2188ZM182 43.2188C182 54.1771 177.729 59.6562 169.188 59.6562C160.625 59.6562 156.344 54.1771 156.344 43.2188C156.344 32.2812 160.625 26.8125 169.188 26.8125C177.729 26.8125 182 32.2812 182 43.2188ZM172.906 43.2188C172.906 39.1979 172.625 36.4792 172.062 35.0625C171.521 33.6458 170.562 32.9375 169.188 32.9375C167.854 32.9375 166.896 33.6146 166.312 34.9688C165.729 36.3021 165.438 39.0521 165.438 43.2188C165.438 47.0729 165.688 49.75 166.188 51.25C166.688 52.75 167.688 53.5 169.188 53.5C170.625 53.5 171.604 52.7604 172.125 51.2812C172.646 49.7812 172.906 47.0938 172.906 43.2188ZM187.125 16.3438H195.938V39.625L204.812 27.4375H212.812L204.844 38.0312L213.594 59H204.094L199.156 44.3438L195.938 48.7812V59H187.125V16.3438ZM225.406 24.8438H216.469V16.125H225.406V24.8438ZM216.531 27.4375H225.344V59H216.531V27.4375ZM231.812 27.4375H240.156V31.75C241.615 28.4583 244.25 26.8125 248.062 26.8125C250.125 26.8125 251.823 27.2812 253.156 28.2188C254.51 29.1354 255.375 30.3125 255.75 31.75C256.125 33.1875 256.312 35.375 256.312 38.3125V59H247.5V38.3125C247.5 36.1875 247.229 34.875 246.688 34.375C246.146 33.875 245.417 33.625 244.5 33.625C242.917 33.625 241.875 34.1146 241.375 35.0938C240.875 36.0521 240.625 37.8542 240.625 40.5V59H231.812V27.4375ZM289.219 22.25V28C288.552 27.8333 287.917 27.75 287.312 27.75C285.479 27.75 284.365 28.6979 283.969 30.5938C285.531 32.2396 286.312 34.3438 286.312 36.9062C286.312 39.7604 285.25 42.0521 283.125 43.7812C281 45.4896 278.25 46.3438 274.875 46.3438C273.583 46.3438 272.219 46.1667 270.781 45.8125C269.406 46.5625 268.719 47.4271 268.719 48.4062C268.719 49.1979 269.104 49.7188 269.875 49.9688C270.646 50.2188 272.75 50.4375 276.188 50.625C279.354 50.8125 281.719 51.125 283.281 51.5625C284.865 52 286.177 52.8958 287.219 54.25C288.281 55.6042 288.812 57.3854 288.812 59.5938C288.812 66.6354 283.677 70.1562 273.406 70.1562C264.781 70.1562 260.469 67.6458 260.469 62.625C260.469 59.8542 262.188 57.8958 265.625 56.75C262.875 55.4583 261.5 53.6354 261.5 51.2812C261.5 48.5729 263.312 46.2604 266.938 44.3438C263.812 42.8021 262.25 40.1771 262.25 36.4688C262.25 33.3229 263.323 30.9271 265.469 29.2812C267.635 27.6354 270.521 26.8125 274.125 26.8125C276.521 26.8125 278.771 27.2708 280.875 28.1875C281.104 25.9375 281.667 24.3333 282.562 23.375C283.458 22.4167 284.865 21.9375 286.781 21.9375C287.698 21.9375 288.51 22.0417 289.219 22.25ZM277.219 36.625C277.219 33.2292 276.292 31.5312 274.438 31.5312C273.312 31.5312 272.51 31.9479 272.031 32.7812C271.573 33.5938 271.344 34.9479 271.344 36.8438C271.344 40.0312 272.354 41.625 274.375 41.625C275.396 41.625 276.125 41.25 276.562 40.5C277 39.75 277.219 38.4583 277.219 36.625ZM270.5 57.625C268.646 58.4792 267.719 59.75 267.719 61.4375C267.719 63.5625 270.135 64.625 274.969 64.625C279.115 64.625 281.188 63.5208 281.188 61.3125C281.188 60.5 280.958 59.8333 280.5 59.3125C280.062 58.8125 279.49 58.5 278.781 58.375C278.094 58.2292 276.635 58.1042 274.406 58C273.094 57.9167 271.792 57.7917 270.5 57.625Z" fill="url(#paint0_linear_67_171)"/>
<path d="M3.6875 16.3438H14.0938L25.0625 42.8438V16.3438H32.3125V59H23.9375L10.9375 28.125V59H3.6875V16.3438ZM63.5312 44.6875H46.9688V46.4375C46.9688 49.2708 47.3542 51.1667 48.125 52.125C48.8958 53.0833 49.9062 53.5625 51.1562 53.5625C53.8438 53.5625 55.3542 51.7604 55.6875 48.1562L63.5312 48.6562C62.1354 55.9896 57.9583 59.6562 51 59.6562C46.7083 59.6562 43.4479 58.2083 41.2188 55.3125C38.9896 52.4167 37.875 48.5417 37.875 43.6875C37.875 38.2083 39.0521 34.0312 41.4062 31.1562C43.7812 28.2604 46.9583 26.8125 50.9375 26.8125C54.5208 26.8125 57.5104 28.0938 59.9062 30.6562C62.3229 33.1979 63.5312 37.875 63.5312 44.6875ZM55.2188 39.5938C55.2396 39.2188 55.25 38.9271 55.25 38.7188C55.25 34.6562 53.875 32.625 51.125 32.625C48.4167 32.625 47.0521 34.9479 47.0312 39.5938H55.2188ZM70 17.75L78.5625 17.4688V27.4375H84.375V34.375H78.5625V45.9688C78.5625 48.1146 78.6042 49.5104 78.6875 50.1562C78.7917 50.7812 79.1042 51.3125 79.625 51.75C80.1667 52.1667 81.0625 52.375 82.3125 52.375C82.9792 52.375 83.8125 52.3542 84.8125 52.3125V59C82.8542 59.4375 81.0625 59.6562 79.4375 59.6562C76.7708 59.6562 74.7292 59.1458 73.3125 58.125C71.8958 57.1042 70.9896 55.8229 70.5938 54.2812C70.1979 52.7396 70 50.2917 70 46.9375V34.375H66.5V27.4375H70V17.75Z" fill="white"/>
<defs>
<linearGradient id="paint0_linear_67_171" x1="196.5" y1="7.488" x2="196.5" y2="64.896" gradientUnits="userSpaceOnUse">
<stop stop-color="#F7E309"/>
<stop offset="1" stop-color="#ED8422"/>
</linearGradient>
</defs>
</svg>
